<svg width="50" height="50" class="hidden">
<symbol id="icon-logo" xmlns="http://www.w3.org/2000/svg" width="50" height="50" fill="none"><path fill="url(#a)" d="M43.951 29.006 33.408 4.854l-2.3-1.593-2.695-.858-3.646-.981-4.281 1.839-2.854 1.593 10.781 24.152h15.538Z"/><path fill="url(#b)" d="m6.113 20.93 10.544 24.208 2.299 1.597 2.695.86 3.647.983 4.28-1.843 2.854-1.597L21.651 20.93H6.113Z"/><path fill="#fff" d="M17.068 5.17.7 28.83l16.368.175L28.9 5.17c.831-2.438 3.43-1.016 4.626 0-5.11-9.363-13.101-3.901-16.458 0ZM32.932 44.83 49.3 21.17l-16.368-.175L21.099 44.83c-.83 2.438-3.43 1.016-4.625 0 5.11 9.363 13.101 3.901 16.458 0Z"/><defs><linearGradient id="a" x1="41.224" x2="28.72" y1="29.006" y2="5.613" gradientUnits="userSpaceOnUse"><stop/><stop offset=".495" stop-color="#fff"/><stop offset="1" stop-color="#fff"/></linearGradient><linearGradient id="b" x1="8.84" x2="21.39" y1="20.93" y2="44.353" gradientUnits="userSpaceOnUse"><stop stop-color="#0C0C0C"/><stop offset=".495" stop-color="#fff"/><stop offset="1" stop-color="#fff"/></linearGradient></defs></symbol>
  <symbol xmlns="http://www.w3.org/2000/svg" viewBox="0 0 24 24" id="menu-left">
    <path fill="currentColor" d="M2 5.995c0-.55.446-.995.995-.995h8.01a.995.995 0 0 1 0 1.99h-8.01A.995.995 0 0 1 2 5.995ZM2 12c0-.55.446-.995.995-.995h18.01a.995.995 0 1 1 0 1.99H2.995A.995.995 0 0 1 2 12Zm.995 5.01a.995.995 0 0 0 0 1.99h12.01a.995.995 0 0 0 0-1.99H2.995Z"></path>
  </symbol>
  <symbol xmlns="http://www.w3.org/2000/svg" viewBox="0 0 24 24" id="button-close">
    <path fill="currentColor" d="M6.4 19L5 17.6l5.6-5.6L5 6.4L6.4 5l5.6 5.6L17.6 5L19 6.4L13.4 12l5.6 5.6l-1.4 1.4l-5.6-5.6L6.4 19Z"></path>
  </symbol>
  <symbol xmlns="http://www.w3.org/2000/svg" viewBox="0 0 24 24" id="chevron-left">
    <path fill="currentColor" d="m13.3 17.3l-4.6-4.6q-.15-.15-.212-.325T8.425 12q0-.2.063-.375T8.7 11.3l4.6-4.6q.275-.275.7-.275t.7.275q.275.275.275.7t-.275.7L10.8 12l3.9 3.9q.275.275.275.7t-.275.7q-.275.275-.7.275t-.7-.275Z"></path>
  </symbol>
  <symbol xmlns="http://www.w3.org/2000/svg" viewBox="0 0 24 24" id="chevron-right">
    <path fill="currentColor" d="M8.7 17.3q-.275-.275-.275-.7t.275-.7l3.9-3.9l-3.9-3.9q-.275-.275-.275-.7t.275-.7q.275-.275.7-.275t.7.275l4.6 4.6q.15.15.213.325t.062.375q0 .2-.063.375t-.212.325l-4.6 4.6q-.275.275-.7.275t-.7-.275Z"></path>
  </symbol>
  <symbol fill="none" xmlns="http://www.w3.org/2000/svg" viewBox="0 0 28 28" id="facebook">
    <g opacity="0.8">
      <path d="M17.0799 4.06014C17.2899 4.06014 17.4999 4.06014 17.9199 4.06014V7.21014C17.7099 7.21014 17.2899 7.21014 16.8699 7.21014C16.4499 7.21014 16.0299 7.21014 15.8199 7.42014C15.6099 7.63014 15.6099 7.84014 15.6099 8.33014C15.6099 8.75014 15.6099 9.03014 15.6099 9.45014H17.9199V12.1101H15.6099V23.6601H12.0399V12.0401H10.1499V9.38014H12.0399V8.47014C12.0399 6.93014 12.2499 5.81014 12.6699 5.32014C13.2999 4.41014 14.5599 3.99014 16.4499 3.99014C16.6599 4.06014 16.8699 4.06014 17.0799 4.06014Z" fill="white"></path>
    </g>
  </symbol>
  <symbol fill="none" xmlns="http://www.w3.org/2000/svg" viewBox="0 0 28 28" id="Frame 52">
    <path d="M17.0799 4.06014C17.2899 4.06014 17.4999 4.06014 17.9199 4.06014V7.21014C17.7099 7.21014 17.2899 7.21014 16.8699 7.21014C16.4499 7.21014 16.0299 7.21014 15.8199 7.42014C15.6099 7.63014 15.6099 7.84014 15.6099 8.33014C15.6099 8.75014 15.6099 9.03014 15.6099 9.45014H17.9199V12.1101H15.6099V23.6601H12.0399V12.0401H10.1499V9.38014H12.0399V8.47014C12.0399 6.93014 12.2499 5.81014 12.6699 5.32014C13.2999 4.41014 14.5599 3.99014 16.4499 3.99014C16.6599 4.06014 16.8699 4.06014 17.0799 4.06014Z" fill="white"></path>
  </symbol>
</svg>